<mxfile host="app.diagrams.net" modified="2023-02-20T06:49:27.450Z" agent="5.0 (Windows NT 10.0; Win64; x64) AppleWebKit/537.36 (KHTML, like Gecko) Chrome/110.0.0.0 Safari/537.36 Edg/110.0.1587.50" etag="_mB76Van5w2GaSpiLBNd" version="20.8.20" type="github">
  <diagram name="第 1 页" id="fEZX0kXtipA56TciqK5S">
    <mxGraphModel dx="1221" dy="751" grid="1" gridSize="10" guides="1" tooltips="1" connect="1" arrows="1" fold="1" page="1" pageScale="1" pageWidth="3300" pageHeight="4681" math="0" shadow="0">
      <root>
        <mxCell id="0" />
        <mxCell id="1" parent="0" />
        <mxCell id="gz_ho0c8wg7XdhOyV5uj-7" style="edgeStyle=orthogonalEdgeStyle;rounded=0;orthogonalLoop=1;jettySize=auto;html=1;exitX=0.5;exitY=1;exitDx=0;exitDy=0;entryX=0.5;entryY=0;entryDx=0;entryDy=0;dashed=1;fontSize=16;fontColor=#FF0000;" edge="1" parent="1" source="gz_ho0c8wg7XdhOyV5uj-1" target="gz_ho0c8wg7XdhOyV5uj-4">
          <mxGeometry relative="1" as="geometry" />
        </mxCell>
        <mxCell id="gz_ho0c8wg7XdhOyV5uj-8" style="edgeStyle=orthogonalEdgeStyle;rounded=0;orthogonalLoop=1;jettySize=auto;html=1;exitX=0.5;exitY=0;exitDx=0;exitDy=0;dashed=1;fontSize=16;fontColor=#FF0000;startArrow=classic;startFill=1;endArrow=none;endFill=0;" edge="1" parent="1" source="gz_ho0c8wg7XdhOyV5uj-1">
          <mxGeometry relative="1" as="geometry">
            <mxPoint x="440" y="110" as="targetPoint" />
          </mxGeometry>
        </mxCell>
        <mxCell id="gz_ho0c8wg7XdhOyV5uj-1" value="kvm_dev_ioctl_create_vm" style="rounded=0;whiteSpace=wrap;html=1;fontSize=16;" vertex="1" parent="1">
          <mxGeometry x="335" y="260" width="210" height="50" as="geometry" />
        </mxCell>
        <mxCell id="gz_ho0c8wg7XdhOyV5uj-3" value="KVM_CREATE_VM" style="text;html=1;strokeColor=none;fillColor=none;align=center;verticalAlign=middle;whiteSpace=wrap;rounded=0;fontSize=16;fontColor=#FF0000;" vertex="1" parent="1">
          <mxGeometry x="250" y="180" width="170" height="30" as="geometry" />
        </mxCell>
        <mxCell id="gz_ho0c8wg7XdhOyV5uj-6" style="edgeStyle=orthogonalEdgeStyle;rounded=0;orthogonalLoop=1;jettySize=auto;html=1;exitX=0.5;exitY=1;exitDx=0;exitDy=0;entryX=0.5;entryY=0;entryDx=0;entryDy=0;fontSize=16;fontColor=#FF0000;dashed=1;" edge="1" parent="1" source="gz_ho0c8wg7XdhOyV5uj-4" target="gz_ho0c8wg7XdhOyV5uj-5">
          <mxGeometry relative="1" as="geometry" />
        </mxCell>
        <mxCell id="gz_ho0c8wg7XdhOyV5uj-4" value="kvm_dev_ioctl_create_vcpu" style="rounded=0;whiteSpace=wrap;html=1;fontSize=16;" vertex="1" parent="1">
          <mxGeometry x="335" y="400" width="210" height="50" as="geometry" />
        </mxCell>
        <mxCell id="gz_ho0c8wg7XdhOyV5uj-5" value="create_vcpu_fd" style="rounded=0;whiteSpace=wrap;html=1;fontSize=16;" vertex="1" parent="1">
          <mxGeometry x="365" y="510" width="150" height="50" as="geometry" />
        </mxCell>
        <mxCell id="gz_ho0c8wg7XdhOyV5uj-10" value="KVM_CREATE_VCPU" style="text;html=1;strokeColor=none;fillColor=none;align=center;verticalAlign=middle;whiteSpace=wrap;rounded=0;fontSize=16;fontColor=#FF0000;" vertex="1" parent="1">
          <mxGeometry x="250" y="340" width="170" height="30" as="geometry" />
        </mxCell>
      </root>
    </mxGraphModel>
  </diagram>
</mxfile>
